<svg width="260" height="260" viewBox="0 0 260 260" fill="none" xmlns="http://www.w3.org/2000/svg">
<path fill-rule="evenodd" clip-rule="evenodd" d="M130 259C201.245 259 259 201.245 259 130C259 58.7553 201.245 1 130 1C58.7553 1 1 58.7553 1 130C1 201.245 58.7553 259 130 259Z" stroke="#239BD8" stroke-opacity="0.2"/>
<path fill-rule="evenodd" clip-rule="evenodd" d="M130 233.2C186.996 233.2 233.2 186.996 233.2 130C233.2 73.0042 186.996 26.8 130 26.8C73.0043 26.8 26.8 73.0042 26.8 130C26.8 186.996 73.0043 233.2 130 233.2Z" stroke="#239BD8" stroke-opacity="0.501202"/>
<path fill-rule="evenodd" clip-rule="evenodd" d="M130 207.4C172.747 207.4 207.4 172.747 207.4 130C207.4 87.2532 172.747 52.6 130 52.6C87.2533 52.6 52.6001 87.2532 52.6001 130C52.6001 172.747 87.2533 207.4 130 207.4Z" stroke="#2DC897"/>
<path fill-rule="evenodd" clip-rule="evenodd" d="M164.58 109.418C165.773 110.611 165.773 112.547 164.58 113.74C156.66 121.66 129.275 149.045 121.355 156.965C120.782 157.538 120.005 157.861 119.194 157.861C118.383 157.861 117.605 157.538 117.032 156.965C112.149 152.081 100.304 140.237 95.4198 135.353C94.2266 134.159 94.2266 132.224 95.4198 131.03C96.7402 129.711 98.4225 128.028 99.7429 126.707C100.936 125.514 102.872 125.514 104.065 126.708C108.703 131.346 119.194 141.837 119.194 141.837C119.194 141.837 147.76 113.27 155.935 105.096C156.508 104.523 157.286 104.201 158.096 104.2C158.907 104.2 159.685 104.523 160.258 105.096L164.58 109.418Z" fill="#2DC897"/>
</svg>
