<svg width="411" height="219" viewBox="0 0 411 219" fill="none" xmlns="http://www.w3.org/2000/svg">
<mask id="mask0_211_238" style="mask-type:alpha" maskUnits="userSpaceOnUse" x="0" y="0" width="411" height="219">
<path d="M0 0H411V159C411 192.137 384.137 219 351 219H60C26.8629 219 0 192.137 0 159V0Z" fill="#239BD8"/>
</mask>
<g mask="url(#mask0_211_238)">
<path fill-rule="evenodd" clip-rule="evenodd" d="M-306 7L-284.917 30C-263.194 53 -221.028 99 -178.222 110.5C-135.417 122 -93.25 99 -50.4444 99C-7.63885 99 34.5278 122 77.3334 133.5C120.139 145 162.306 145 205.111 137.333C247.917 129.667 290.083 114.333 332.889 87.5C375.694 60.6667 417.861 22.3333 439.583 3.16667L460.667 -16V214H439.583C417.861 214 375.694 214 332.889 214C290.083 214 247.917 214 205.111 214C162.306 214 120.139 214 77.3334 214C34.5278 214 -7.63885 214 -50.4444 214C-93.25 214 -135.417 214 -178.222 214C-221.028 214 -263.194 214 -284.917 214H-306V7Z" fill="#006FB9" fill-opacity="0.3"/>
<path fill-rule="evenodd" clip-rule="evenodd" d="M460.667 109L428.722 97.5C396.778 86 332.889 63 269 70.6667C205.111 78.3333 141.222 116.667 77.3333 139.667C13.4445 162.667 -50.4444 170.333 -114.333 151.167C-178.222 132 -242.111 86 -274.056 63L-306 40V224H-274.056C-242.111 224 -178.222 224 -114.333 224C-50.4444 224 13.4445 224 77.3333 224C141.222 224 205.111 224 269 224C332.889 224 396.778 224 428.722 224H460.667V109Z" fill="#006FB9" fill-opacity="0.2"/>
</g>
</svg>
