<svg width="291" height="294" viewBox="0 0 291 294" fill="none" xmlns="http://www.w3.org/2000/svg">
<path d="M31.1508 225.497C-3.16727 185.059 8.85694 125.122 29.2865 106.965C49.716 88.8087 82.1311 78.8234 99.4965 57.6007C116.862 36.3781 136.866 21.184 173.429 32.1374C209.991 43.0908 209.45 71.5104 220.416 89.1314C231.382 106.752 280.285 116.557 277.505 161.726C274.725 206.895 243.677 206.811 229.524 217.939C215.371 229.067 193.039 281.614 148.367 282.162C93.5941 282.834 60.1985 259.72 31.1508 225.497Z" fill="#EEEEFF"/>
<g opacity="0.3">
<path opacity="0.3" d="M154.818 7.8165L152.883 14.5486C151.132 15.0205 149.446 15.7077 147.864 16.5947L141.665 13.1867L136.111 18.6602L139.556 24.7792C138.66 26.3402 137.964 28.0078 137.485 29.7427L130.692 31.6275V39.373L137.511 41.3094C137.99 43.0443 138.686 44.7119 139.582 46.2729L136.111 52.3919L141.646 57.8654L147.845 54.4573C149.433 55.3458 151.125 56.0331 152.883 56.5035L154.818 63.255H162.669L164.604 56.5228C166.367 56.0474 168.064 55.3535 169.655 54.4573L175.854 57.8654L181.389 52.3919L177.944 46.2729C178.829 44.7113 179.512 43.0434 179.976 41.3094L186.795 39.373V31.6275L179.976 29.6911C179.5 27.9552 178.804 26.2872 177.905 24.7275L181.35 18.6086L175.815 13.1351L169.655 16.5947C168.073 15.7077 166.387 15.0205 164.636 14.5486L162.701 7.8165H154.818ZM158.753 21.0419C161.609 21.0789 164.39 21.9603 166.746 23.5753C169.103 25.1902 170.929 27.4665 171.995 30.1177C173.061 32.7688 173.32 35.6764 172.738 38.4742C172.157 41.2721 170.761 43.8353 168.727 45.8412C166.692 47.8472 164.111 49.2061 161.306 49.7471C158.502 50.288 155.6 49.9868 152.966 48.8813C150.333 47.7758 148.085 45.9154 146.505 43.5344C144.926 41.1533 144.086 38.358 144.091 35.5002C144.13 31.6409 145.694 27.9539 148.441 25.2448C151.189 22.5357 154.896 21.0247 158.753 21.0419V21.0419Z" stroke="#7371FC" stroke-width="0.645459" stroke-miterlimit="10"/>
</g>
<g opacity="0.3">
<path opacity="0.3" d="M269.403 135.385L268.113 139.864C266.946 140.176 265.823 140.633 264.771 141.226L260.649 138.961L256.966 142.601L259.256 146.674C258.661 147.712 258.197 148.82 257.875 149.972L253.36 151.263V156.427L257.875 157.718C258.197 158.87 258.661 159.978 259.256 161.016L256.966 165.089L260.649 168.729L264.771 166.464C265.823 167.057 266.946 167.515 268.113 167.826L269.403 172.305H274.622L275.912 167.826C277.078 167.512 278.2 167.055 279.253 166.464L283.375 168.729L287.059 165.044L284.769 160.971C285.362 159.933 285.823 158.825 286.143 157.673L290.658 156.382V151.218L286.143 149.927C285.823 148.775 285.362 147.667 284.769 146.629L287.059 142.556L283.375 138.916L279.253 141.181C278.2 140.59 277.078 140.133 275.912 139.819L274.622 135.34L269.403 135.385ZM271.983 144.189C273.883 144.213 275.732 144.799 277.3 145.872C278.868 146.946 280.083 148.459 280.793 150.222C281.503 151.985 281.677 153.919 281.291 155.78C280.906 157.641 279.979 159.347 278.628 160.682C277.276 162.018 275.56 162.923 273.695 163.285C271.83 163.647 269.9 163.449 268.147 162.717C266.395 161.984 264.898 160.749 263.845 159.167C262.792 157.585 262.23 155.726 262.23 153.826C262.252 151.251 263.294 148.79 265.127 146.984C266.961 145.177 269.436 144.172 272.009 144.189H271.983Z" stroke="#7371FC" stroke-width="0.645459" stroke-miterlimit="10"/>
</g>
<g opacity="0.3">
<path opacity="0.3" d="M35.2149 147.165L32.4153 156.911C29.8846 157.596 27.4474 158.589 25.1582 159.867L16.1981 154.949L8.18622 162.856L13.1727 171.692C11.8795 173.951 10.8719 176.362 10.1731 178.87L0.322754 181.639V192.85L10.1731 195.613C10.872 198.118 11.8796 200.527 13.1727 202.784L8.18622 211.633L16.1981 219.546L25.1582 214.622C27.4459 215.905 29.8834 216.9 32.4153 217.584L35.2149 227.311H46.5618L49.3549 217.584C51.8888 216.9 54.3285 215.905 56.6185 214.622L65.5786 219.546L73.584 211.633L68.604 202.784C69.8999 200.529 70.9077 198.119 71.6036 195.613L81.4603 192.85V181.639L71.6036 178.882C70.9088 176.369 69.901 173.954 68.604 171.692L73.584 162.843L65.5786 154.936L56.6185 159.854C54.327 158.576 51.8876 157.583 49.3549 156.898L46.5618 147.165H35.2149ZM40.8851 166.296C46.4702 166.27 51.8377 168.461 55.8111 172.388C59.7845 176.316 62.0397 181.659 62.0823 187.248C62.0823 198.775 52.561 208.186 40.8851 208.186C29.2092 208.186 19.6879 198.801 19.6879 187.248C19.6879 175.694 29.2157 166.309 40.8851 166.309V166.296Z" stroke="#7371FC" stroke-width="0.645459" stroke-miterlimit="10"/>
</g>
<path d="M136.169 272.119C137.661 268.721 140.417 266.038 143.852 264.638L143.955 264.593L143.491 264.386C140.283 262.968 137.709 260.417 136.259 257.222L136.195 257.073L135.834 257.783C134.436 260.528 132.186 262.746 129.422 264.102L128.435 264.593H128.493C131.777 265.931 134.447 268.443 135.982 271.641L136.169 272.119Z" fill="#32338C"/>
<path d="M145.935 276.728C146.676 275.033 148.049 273.694 149.761 272.997H149.812L149.58 272.894C147.977 272.184 146.691 270.909 145.968 269.311L145.935 269.24L145.755 269.595C145.048 270.968 143.917 272.075 142.529 272.752L142.033 272.997C143.674 273.666 145.008 274.922 145.774 276.521L145.935 276.728Z" fill="#7371FC"/>
<path d="M271.196 82.7607C270.087 80.2258 268.035 78.2231 265.474 77.1775L265.397 77.1388L265.745 76.9839C268.145 75.9255 270.07 74.0178 271.151 71.6266L271.196 71.5233L271.467 72.0526C272.516 74.1018 274.197 75.7586 276.26 76.7773L277.002 77.1388H276.957C274.502 78.1418 272.507 80.021 271.357 82.4122L271.196 82.7607Z" fill="#7371FC"/>
<path d="M263.9 86.2075C263.343 84.9401 262.316 83.9384 261.036 83.4126H260.998L261.172 83.3352C262.371 82.805 263.333 81.8514 263.875 80.6565V80.5984L264.01 80.8631C264.531 81.8894 265.371 82.7186 266.403 83.2254L266.777 83.4126C265.55 83.9125 264.552 84.8512 263.978 86.0461L263.9 86.2075Z" fill="#32338C"/>
<path d="M13.5917 139.277C12.4811 136.743 10.4292 134.741 7.86989 133.694H7.79248L8.14082 133.539C10.5381 132.477 12.4618 130.57 13.5466 128.182L13.5917 128.072L13.8626 128.601C14.9096 130.652 16.5907 132.309 18.6556 133.326L19.3974 133.694H19.3522C16.8964 134.692 14.9003 136.57 13.753 138.961L13.5917 139.277Z" fill="#7371FC"/>
<path d="M6.29591 142.724C5.73606 141.46 4.70998 140.461 3.43177 139.935H3.39307L3.56724 139.858C4.76518 139.326 5.72673 138.373 6.2701 137.179V137.128L6.39912 137.392C6.92585 138.416 7.76694 139.244 8.7988 139.755L9.17294 139.935C7.94511 140.438 6.94745 141.379 6.37332 142.575L6.29591 142.724Z" fill="#32338C"/>
<path d="M209.766 59.2918C214.503 59.9416 219.088 61.4207 223.312 63.6616C235.703 70.1009 246.751 78.8486 255.863 89.4348C259.527 93.6948 262.991 98.5486 263.565 104.138C264.21 110.548 260.985 116.641 257.888 122.276C255.308 126.968 252.16 132.093 246.974 133.455C242.729 134.572 238.278 132.81 234.44 130.647C219.442 122.295 208.192 108.056 201.741 92.1199C198.671 84.7371 197.38 76.735 197.974 68.7607C198.122 66.4435 192.052 66.2305 193.684 64.391C196.019 61.7833 203.244 58.4592 209.766 59.2918Z" fill="#32338C"/>
<path d="M247.741 73.2273C247.251 73.9024 246.703 74.533 246.103 75.112C244.004 77.0492 241.554 78.5654 238.884 79.5786C236.954 80.4482 234.867 80.916 232.75 80.9534C232.513 80.9513 232.276 80.9362 232.04 80.9083C232.134 81.3156 232.305 81.7012 232.543 82.0443C233.324 83.1028 234.775 83.3739 236.085 83.4514C239.618 83.6514 243.149 83.0352 246.406 81.6505C246.774 81.5388 247.097 81.3127 247.328 81.0051C247.498 80.6475 247.556 80.2473 247.496 79.8562C247.409 77.6435 247.491 75.4274 247.741 73.2273Z" fill="#F8AB73"/>
<path d="M238.884 79.5786C241.554 78.5654 244.004 77.0491 246.103 75.112C246.703 74.533 247.251 73.9023 247.741 73.2273C248.103 69.6514 248.715 66.1272 248.902 62.4869C245.232 61.6219 239.31 65.4301 236.756 67.8377C233.459 70.9359 231.389 75.4864 231.879 79.9852C231.91 80.2964 231.964 80.6049 232.04 80.9082C232.276 80.9362 232.513 80.9512 232.75 80.9534C234.867 80.916 236.954 80.4482 238.884 79.5786Z" fill="#FE814B"/>
<path d="M263.597 46.2342C265.836 43.0908 268.113 39.9023 269.467 36.3006C270.822 32.6989 271.274 28.5551 269.796 25.0115C268.319 21.468 264.636 18.6667 260.811 18.9958C262.017 16.5237 260.546 13.7805 258.533 11.8958C256.521 10.0111 253.747 9.19779 251.025 8.77824C243.335 7.59059 235.485 9.20424 227.712 8.86215C224.841 8.73306 221.906 8.31351 219.41 6.8935C216.913 5.47349 214.939 2.87229 214.939 0C213.933 2.18811 212.804 4.83449 212.972 7.23559C213.139 9.6367 214.455 12.0765 216.668 13.0447C214.436 13.6902 212.101 12.3024 210.656 10.4629C209.211 8.62333 208.63 6.27386 208.476 3.95666C206.05 5.60088 204.261 8.02694 203.405 10.8308C202.493 13.3244 202.201 16.0026 202.554 18.6344C202.746 19.9474 203.208 21.2063 203.911 22.3316C204.614 23.457 205.542 24.4244 206.637 25.1729C205.572 25.4379 204.454 25.3954 203.412 25.0503C203.422 25.7909 203.601 26.5193 203.937 27.1795C204.272 27.8397 204.755 28.4141 205.347 28.8585C206.533 29.7392 207.881 30.3775 209.314 30.7367C214.152 32.189 219.235 32.5828 224.196 33.5445C235.904 35.823 246.716 41.2513 257.843 45.5436C259.404 46.1503 261.978 46.6344 263.597 46.2342Z" fill="#FE642F"/>
<path d="M251.386 44.485C249.709 38.5339 250.599 32.1309 252.45 26.2379C246.599 31.7501 237.994 33.1056 230.027 32.047C232.689 30.7504 235.076 28.9535 237.059 26.7543C229.144 26.2379 220.977 28.1678 213.081 27.3997C212.212 30.0734 211.605 32.8252 211.269 35.6164C210.684 41.3156 210.919 47.0691 211.965 52.7017C212.991 58.8594 214.7 65.1139 218.597 69.9871C222.493 74.8603 229.002 78.1005 235.046 76.5256C237.288 75.8799 239.393 74.83 241.258 73.4274C248.244 68.4703 253.321 61.2153 256.74 53.3149C254.187 50.9125 252.336 47.8601 251.386 44.485Z" fill="#F8AB74"/>
<path d="M237.059 26.7349C235.076 28.9341 232.689 30.731 230.027 32.0277C237.994 33.1056 246.599 31.7501 252.45 26.2185C250.599 32.1116 249.709 38.5145 251.386 44.4657C252.333 47.8477 254.184 50.9072 256.74 53.3149C257.17 52.2908 257.587 51.2559 257.992 50.2102C259.76 45.746 260.744 41.0097 260.901 36.2102C260.94 31.4209 259.759 26.5284 256.998 22.6233C253.128 17.1111 246.49 14.071 239.865 12.8253C236.633 12.1345 233.299 12.0644 230.04 12.6187C225.738 13.4707 219.88 15.8912 217.087 19.5122C215.327 21.9057 213.978 24.5757 213.094 27.4126C220.977 28.1485 229.144 26.2185 237.059 26.7349Z" fill="#FE642F"/>
<path d="M253.437 44.5367C252.597 47.0315 252.439 49.7056 252.979 52.2822C253.347 54.2766 254.16 56.4389 255.998 57.3038C256.696 57.5857 257.449 57.6998 258.199 57.6371C258.949 57.5743 259.673 57.3363 260.314 56.9424C261.589 56.1409 262.667 55.062 263.468 53.7861C264.826 51.9578 265.712 49.8229 266.049 47.5703C266.2 46.4536 266.111 45.3175 265.789 44.2378C265.466 43.1581 264.917 42.1597 264.178 41.3094C262.668 39.6957 260.004 38.5145 257.921 39.4827C255.829 40.5238 254.222 42.3352 253.437 44.5367Z" fill="#F8AB73"/>
<path d="M263.139 43.6911C262.809 43.2886 262.381 42.9772 261.897 42.7863C261.413 42.5954 260.888 42.5314 260.372 42.6003C259.874 42.6642 259.394 42.8259 258.959 43.0763C258.524 43.3266 258.142 43.6606 257.837 44.059C257.196 44.8495 256.739 45.7736 256.501 46.7635C256.262 47.7817 256.09 48.8145 255.985 49.8552L255.34 49.5906C255.652 49.1801 256.057 48.8492 256.521 48.6248C256.985 48.4005 257.496 48.2891 258.011 48.2997C258.547 48.3325 259.053 48.5624 259.43 48.9451C259.8 49.3321 260.049 49.819 260.146 50.3458C260.251 50.8403 260.229 51.3533 260.082 51.8368C259.92 52.2921 259.66 52.7063 259.32 53.0503C258.646 53.7092 257.794 54.1577 256.869 54.3412C257.724 54.0339 258.483 53.5062 259.069 52.8114C259.338 52.4695 259.536 52.0764 259.649 51.6561C259.753 51.2494 259.753 50.8234 259.649 50.4168C259.567 50.0255 259.363 49.6704 259.066 49.4025C258.769 49.1346 258.395 48.9677 257.998 48.9258C257.591 48.9431 257.194 49.0513 256.834 49.2422C256.475 49.4332 256.163 49.7022 255.921 50.0295L255.147 50.9912L255.282 49.7778C255.376 48.7011 255.562 47.6343 255.837 46.5892C256.117 45.5144 256.647 44.5212 257.385 43.6911C257.758 43.2679 258.211 42.9227 258.718 42.6757C259.226 42.4286 259.777 42.2845 260.34 42.2517C260.892 42.2207 261.443 42.3377 261.935 42.5908C262.427 42.8438 262.843 43.2236 263.139 43.6911Z" fill="#32338C"/>
<path d="M229.705 37.7981C230.266 40.7667 230.266 43.8143 229.705 46.7829C229.176 49.7621 228.121 52.6232 226.589 55.2319L226.505 54.9608C226.947 55.231 227.408 55.4662 227.886 55.6644C228.373 55.8572 228.873 56.0147 229.382 56.1356C228.852 56.1074 228.326 56.0208 227.815 55.8774C227.297 55.7402 226.793 55.5521 226.312 55.3158L226.144 55.2319L226.234 55.0447C227.505 52.3733 228.441 49.555 229.021 46.6538C229.589 43.738 229.818 40.7664 229.705 37.7981Z" fill="#32338C"/>
<path d="M227.712 64.391C228.348 64.8228 229.077 65.0971 229.84 65.1913C231.859 65.385 233.762 63.539 235.098 61.7769C233.755 61.6996 232.41 61.891 231.142 62.3398C229.873 62.7887 228.707 63.486 227.712 64.391Z" fill="#FE632E"/>
<path d="M229.086 61.0346C226.505 60.77 222.693 58.4528 222.693 58.4528C222.693 58.4528 224.873 62.6095 227.712 64.391C228.713 63.4885 229.885 62.7953 231.157 62.352C232.43 61.9086 233.779 61.7241 235.124 61.8091C235.833 60.868 236.465 59.8707 237.014 58.8271C237.014 58.8271 231.66 61.3186 229.086 61.0346Z" fill="#32338C"/>
<path d="M222.241 43.8137C222.312 45.1886 221.654 46.3375 220.771 46.3956C219.887 46.4537 219.119 45.3628 219.048 43.988C218.977 42.6132 219.642 41.4643 220.526 41.4062C221.409 41.3481 222.177 42.4389 222.241 43.8137Z" fill="#32328C"/>
<path d="M240.181 44.1494C240.252 45.5242 239.588 46.6731 238.71 46.7312C237.833 46.7893 237.059 45.692 236.988 44.3236C236.917 42.9553 237.581 41.7999 238.465 41.7418C239.349 41.6837 240.116 42.7745 240.181 44.1494Z" fill="#32328C"/>
<path d="M215.417 38.4758C215.656 37.625 216.035 36.82 216.539 36.0941C216.796 35.7202 217.08 35.3663 217.391 35.0355C217.724 34.7019 218.086 34.3994 218.474 34.1319C218.871 33.8392 219.285 33.5698 219.713 33.325C220.157 33.0844 220.659 32.9706 221.164 32.9959C221.696 32.9951 222.22 33.1277 222.687 33.3813C223.155 33.635 223.552 34.0017 223.841 34.4481L223.764 34.7257C223.048 35.1517 222.305 35.5291 221.538 35.8552C221.236 35.9812 220.911 36.047 220.584 36.0489C220.233 36.0458 219.883 36.0914 219.545 36.1844C219.199 36.2852 218.862 36.417 218.539 36.5781C218.193 36.7346 217.859 36.9158 217.539 37.1203C216.857 37.5527 216.223 38.0568 215.649 38.6243L215.417 38.4758Z" fill="#FE642E"/>
<path d="M243.193 38.6243C242.605 38.0543 241.956 37.55 241.258 37.1203C240.938 36.9158 240.604 36.7346 240.258 36.5781C239.935 36.417 239.599 36.2852 239.252 36.1844C238.916 36.091 238.569 36.0454 238.22 36.0489C237.89 36.0464 237.564 35.9807 237.259 35.8552C236.492 35.5291 235.749 35.1517 235.033 34.7257L234.956 34.4481C235.244 34.0036 235.639 33.638 236.104 33.3844C236.569 33.1308 237.09 32.9973 237.62 32.9959C238.125 32.9706 238.627 33.0844 239.071 33.325C239.499 33.5698 239.913 33.8392 240.31 34.1319C240.699 34.401 241.063 34.7034 241.4 35.0355C241.717 35.3655 242.008 35.7194 242.271 36.0941C242.774 36.8213 243.155 37.6257 243.4 38.4758L243.193 38.6243Z" fill="#FE642E"/>
<g style="mix-blend-mode:multiply" opacity="0.4">
<path d="M221.345 55.3997C221.345 56.497 219.861 57.3877 218.029 57.3877C216.197 57.3877 214.713 56.497 214.713 55.3997C214.713 54.3024 216.197 53.4117 218.029 53.4117C219.861 53.4117 221.345 54.3024 221.345 55.3997Z" fill="#F8AB74"/>
</g>
<g style="mix-blend-mode:multiply" opacity="0.4">
<path d="M244.348 55.3997C244.348 56.497 242.864 57.3877 241.032 57.3877C239.2 57.3877 237.717 56.497 237.717 55.3997C237.717 54.3024 239.2 53.4117 241.032 53.4117C242.864 53.4117 244.348 54.3024 244.348 55.3997Z" fill="#F8AB74"/>
</g>
<path d="M215.042 0.109711C214.601 2.36999 214.906 4.71271 215.913 6.78375C216.858 8.8519 218.441 10.5623 220.429 11.6634C222.476 12.6299 224.719 13.1114 226.983 13.0705C229.273 13.08 231.561 12.9701 233.84 12.7413C238.414 12.3799 243.026 11.7538 247.677 12.0959C250.027 12.2137 252.305 12.9483 254.282 14.2259C255.238 14.9135 256.04 15.7928 256.637 16.8077C257.235 17.8112 257.537 18.9637 257.508 20.1318C257.46 18.9818 257.101 17.8663 256.469 16.9045C255.846 15.9544 255.034 15.1435 254.082 14.5228C252.132 13.3481 249.908 12.705 247.632 12.6574C243.071 12.4186 238.491 13.0253 233.904 13.4449C231.597 13.656 229.28 13.7443 226.963 13.7095C224.654 13.6385 222.241 13.3222 220.164 12.1346C218.119 10.9337 216.515 9.10472 215.591 6.9193C214.657 4.77354 214.464 2.37745 215.042 0.109711Z" fill="#F8AB74"/>
<path d="M254.889 24.1014C254.65 22.8058 254.086 21.5923 253.248 20.5758C252.411 19.5593 251.328 18.7734 250.102 18.2923C247.659 17.3504 244.994 17.1374 242.432 17.6791C239.856 18.2248 237.311 18.9078 234.808 19.7252C232.258 20.4857 229.659 21.0658 227.028 21.4615C224.378 21.853 221.686 21.8769 219.029 21.5325C216.397 21.1517 213.707 20.4094 211.54 18.7377C209.377 17.0868 207.842 14.7455 207.192 12.1023C206.581 9.47896 206.893 6.72517 208.076 4.30521C207.037 6.74085 206.846 9.45486 207.534 12.012C208.225 14.5368 209.754 16.7514 211.869 18.2923C214.037 19.7354 216.527 20.6221 219.119 20.8741C221.717 21.1862 224.345 21.1427 226.931 20.745C229.532 20.3721 232.103 19.8178 234.627 19.0862C237.164 18.2774 239.749 17.6307 242.368 17.1498C245.028 16.6608 247.773 16.9545 250.27 17.9954C251.493 18.5648 252.566 19.4112 253.405 20.4675C254.246 21.5066 254.762 22.7706 254.889 24.1014Z" fill="#F8AB74"/>
<path d="M252.186 22.8557C251.76 22.1941 251.198 21.6313 250.537 21.2049C249.876 20.7786 249.132 20.4985 248.354 20.3836C246.818 20.1771 245.255 20.4006 243.839 21.029C242.398 21.6718 241.072 22.5437 239.91 23.6109C238.71 24.6565 237.568 25.8054 236.375 26.8898C237.34 25.5874 238.394 24.3537 239.529 23.1978C240.678 22.0068 242.047 21.051 243.561 20.3836C244.334 20.0657 245.145 19.8487 245.974 19.7381C246.811 19.6367 247.66 19.6782 248.483 19.8608C249.302 20.0521 250.069 20.4176 250.734 20.9322C251.375 21.4383 251.875 22.1006 252.186 22.8557Z" fill="#F8AB74"/>
<path d="M261.256 22.7201C262.2 22.422 263.218 22.4585 264.139 22.8234C265.071 23.2017 265.886 23.821 266.5 24.6178C267.677 26.2414 268.311 28.1953 268.313 30.201C268.338 32.1728 267.956 34.1285 267.19 35.9456C266.818 36.8337 266.387 37.6962 265.9 38.5274C265.401 39.3532 264.856 40.1505 264.268 40.9156C264.726 40.0636 265.197 39.231 265.591 38.3338C266.01 37.4803 266.374 36.6006 266.681 35.7003C267.315 33.9261 267.627 32.0528 267.603 30.1687C267.607 28.3001 267.074 26.4697 266.068 24.8953C265.553 24.1236 264.843 23.5022 264.01 23.0945C263.156 22.6751 262.19 22.5438 261.256 22.7201Z" fill="#F8AB74"/>
<path d="M256.185 25.8183C256.879 25.697 257.593 25.8153 258.211 26.154C258.838 26.502 259.375 26.9928 259.778 27.5869C260.522 28.7681 261.026 30.0839 261.262 31.4596C261.524 32.8254 261.568 34.2241 261.391 35.6035C261.308 36.2879 261.165 36.9639 260.965 37.6238C260.856 37.953 260.746 38.2692 260.617 38.592C260.563 38.7597 260.485 38.9185 260.385 39.0632C260.282 39.1987 260.088 39.3407 259.92 39.2439C260.101 39.2955 260.224 39.1406 260.294 39.0051C260.364 38.8559 260.409 38.697 260.43 38.5339C260.507 38.2047 260.565 37.8884 260.617 37.5399C260.73 36.8823 260.801 36.2183 260.83 35.5519C260.898 34.2269 260.807 32.8985 260.559 31.5952C260.349 30.2911 259.931 29.0293 259.32 27.858C259.001 27.2914 258.56 26.8022 258.03 26.4251C257.492 26.038 256.848 25.8261 256.185 25.8183Z" fill="#F8AB74"/>
<path d="M104.458 45.4934L23.5776 55.9324L34.9173 143.896L115.798 133.457L104.458 45.4934Z" fill="#EEEEFF"/>
<path d="M101.984 26.3237L21.1038 36.7626L23.5745 55.9289L104.455 45.4899L101.984 26.3237Z" fill="#7371FC"/>
<path d="M23.5711 55.9254L12.5605 57.3465L23.9003 145.31L34.9108 143.889L23.5711 55.9254Z" fill="#91C4FB"/>
<path d="M21.1043 36.762L10.0938 38.1831L12.5645 57.3493L23.5751 55.9282L21.1043 36.762Z" fill="#443DC3"/>
<path d="M42.2354 59.6282L29.8972 61.2493L32.0969 78.0104L44.4351 76.3893L42.2354 59.6282Z" fill="#FEFFFD"/>
<path d="M56.8734 57.7067L44.5352 59.3279L46.7348 76.0889L59.073 74.4678L56.8734 57.7067Z" fill="#FEFFFD"/>
<path d="M71.5226 56.037L59.1621 57.6324L61.3267 74.4236L73.6872 72.8283L71.5226 56.037Z" fill="#FEFFFD"/>
<path d="M86.1969 54.1426L73.8364 55.7379L76.001 72.5291L88.3615 70.9338L86.1969 54.1426Z" fill="#FEFFFD"/>
<path d="M100.864 52.2482L88.5037 53.8435L90.6683 70.6348L103.029 69.0394L100.864 52.2482Z" fill="#FEFFFD"/>
<path d="M44.7162 78.568L32.3779 80.1891L34.5776 96.9502L46.9158 95.3291L44.7162 78.568Z" fill="#FEFFFD"/>
<path d="M59.3011 76.9166L46.9407 78.512L49.1053 95.3032L61.4657 93.7079L59.3011 76.9166Z" fill="#FEFFFD"/>
<path d="M73.9911 74.7316L61.6528 76.3527L63.8525 93.1138L76.1907 91.4927L73.9911 74.7316Z" fill="#FEFFFD"/>
<path d="M88.6427 73.1278L76.2822 74.7231L78.4468 91.5144L90.8073 89.919L88.6427 73.1278Z" fill="#FEFFFD"/>
<path d="M103.273 70.8951L90.9348 72.5163L93.1345 89.2773L105.473 87.6562L103.273 70.8951Z" fill="#FEFFFD"/>
<path d="M47.1974 97.5199L34.8591 99.141L37.0588 115.902L49.397 114.281L47.1974 97.5199Z" fill="#FEFFFD"/>
<path d="M61.7533 95.901L49.3928 97.4963L51.5574 114.288L63.9179 112.692L61.7533 95.901Z" fill="#FEFFFD"/>
<path d="M76.421 94.0065L64.0605 95.6019L66.2252 112.393L78.5856 110.798L76.421 94.0065Z" fill="#FEFFFD"/>
<path d="M91.0882 92.1121L78.7278 93.7075L80.8924 110.499L93.2529 108.903L91.0882 92.1121Z" fill="#FEFFFD"/>
<path d="M105.756 90.2241L93.3958 91.8194L95.5604 108.611L107.921 107.015L105.756 90.2241Z" fill="#FEFFFD"/>
<path d="M49.5252 116.781L37.1648 118.376L39.3294 135.167L51.6899 133.572L49.5252 116.781Z" fill="#FEFFFD"/>
<path d="M64.1988 114.88L51.8384 116.475L54.003 133.266L66.3635 131.671L64.1988 114.88Z" fill="#FEFFFD"/>
<path d="M78.8668 112.992L66.5063 114.587L68.671 131.378L81.0314 129.783L78.8668 112.992Z" fill="#FEFFFD"/>
<path d="M93.5348 111.097L81.1743 112.693L83.3389 129.484L95.6994 127.889L93.5348 111.097Z" fill="#FEFFFD"/>
<path d="M108.202 109.203L95.8413 110.798L98.0059 127.589L110.366 125.994L108.202 109.203Z" fill="#FEFFFD"/>
<path d="M16.5913 37.3398L15.8881 31.8986C15.7832 31.0851 15.8398 30.2589 16.0545 29.4673C16.2692 28.6758 16.638 27.9344 17.1395 27.2856C17.6411 26.6369 18.2656 26.0935 18.9774 25.6867C19.6892 25.2798 20.4742 25.0175 21.2874 24.9147L25.0676 24.4242C26.7072 24.2138 28.3633 24.6632 29.672 25.6738C30.9808 26.6843 31.8351 28.1733 32.0473 29.8137L33.26 39.1987C33.4702 40.8386 33.0209 42.4949 32.0108 43.8034C31.0007 45.1119 29.5125 45.9653 27.8736 46.1761V46.1761" stroke="#32338C" stroke-width="2.6012" stroke-linecap="round" stroke-linejoin="round"/>
<path d="M27.3835 35.9456L26.6803 30.5044C26.4701 28.8637 26.9192 27.2067 27.9292 25.8972C28.9392 24.5877 30.4273 23.7329 32.0667 23.5205L35.8469 23.03C37.4836 22.8193 39.137 23.2661 40.4452 24.2726C41.7534 25.2792 42.6097 26.7633 42.8266 28.4002L44.0329 37.7852C44.245 39.4251 43.7974 41.0822 42.7884 42.392C41.7795 43.7017 40.2919 44.5567 38.6529 44.769V44.769" stroke="#32338C" stroke-width="2.6012" stroke-linecap="round" stroke-linejoin="round"/>
<path d="M38.1757 34.5579L37.4726 29.1102C37.2623 27.4695 37.7115 25.8125 38.7214 24.503C39.7314 23.1935 41.2195 22.3387 42.859 22.1263L46.6391 21.6422C48.2781 21.43 49.9342 21.8779 51.2432 22.8874C52.5521 23.8969 53.4067 25.3854 53.6188 27.0254L54.8316 36.4103C54.9375 37.2225 54.8822 38.0476 54.6691 38.8383C54.4559 39.6291 54.089 40.3701 53.5892 41.0188C53.0895 41.6675 52.4668 42.2112 51.7569 42.6188C51.0469 43.0264 50.2635 43.2899 49.4516 43.3942V43.3942" stroke="#32338C" stroke-width="2.6012" stroke-linecap="round" stroke-linejoin="round"/>
<path d="M48.9678 33.1637L48.2647 27.716C48.0543 26.0763 48.5026 24.4201 49.5112 23.1108C50.5198 21.8015 52.0064 20.946 53.6446 20.7321L57.4118 20.248C59.0505 20.0375 60.7057 20.4861 62.0143 21.4953C63.3228 22.5045 64.1778 23.9919 64.3916 25.6312L65.5979 35.0161C65.81 36.6561 65.3623 38.3132 64.3534 39.6229C63.3445 40.9327 61.8569 41.7877 60.2179 42V42" stroke="#32338C" stroke-width="2.6012" stroke-linecap="round" stroke-linejoin="round"/>
<path d="M59.7598 31.7695L59.0567 26.3218C58.8501 24.6856 59.3005 23.0343 60.309 21.7299C61.3176 20.4256 62.8019 19.5746 64.4366 19.3638L68.2232 18.8732C69.0344 18.7682 69.8583 18.8241 70.6478 19.0378C71.4374 19.2515 72.1771 19.6189 72.8247 20.1188C73.4723 20.6187 74.0151 21.2415 74.4221 21.9514C74.829 22.6614 75.0922 23.4446 75.1964 24.2563L76.4092 33.6413C76.6213 35.2813 76.1737 36.9384 75.1648 38.2481C74.1558 39.5578 72.6682 40.4129 71.0293 40.6252V40.6252" stroke="#32338C" stroke-width="2.6012" stroke-linecap="round" stroke-linejoin="round"/>
<path d="M70.552 30.3753L69.8489 24.9276C69.7439 24.116 69.7998 23.2916 70.0134 22.5015C70.227 21.7115 70.5941 20.9713 71.0937 20.3233C71.5933 19.6753 72.2157 19.1322 72.9252 18.725C73.6348 18.3178 74.4175 18.0546 75.2288 17.9502L79.0154 17.4597C79.8266 17.3546 80.6505 17.4105 81.44 17.6243C82.2296 17.838 82.9693 18.2053 83.6169 18.7053C84.2646 19.2052 84.8073 19.8279 85.2143 20.5379C85.6212 21.2478 85.8844 22.031 85.9886 22.8428L87.2014 32.2342C87.3064 33.0459 87.2505 33.8703 87.0369 34.6603C86.8233 35.4504 86.4562 36.1905 85.9565 36.8385C85.4569 37.4865 84.8345 38.0296 84.125 38.4368C83.4155 38.844 82.6327 39.1073 81.8215 39.2116V39.2116" stroke="#32338C" stroke-width="2.6012" stroke-linecap="round" stroke-linejoin="round"/>
<path d="M81.3375 28.9811L80.6344 23.5399C80.5284 22.7277 80.5837 21.9027 80.7968 21.1119C81.01 20.3211 81.377 19.5802 81.8767 18.9315C82.3764 18.2828 82.9991 17.739 83.709 17.3314C84.419 16.9238 85.2024 16.6603 86.0143 16.556L89.8009 16.0655C91.4378 15.8588 93.0898 16.3102 94.3946 17.3205C95.6994 18.3309 96.5505 19.8177 96.7612 21.4551L97.974 30.84C98.1842 32.48 97.7348 34.1363 96.7247 35.4447C95.7146 36.7532 94.2265 37.6067 92.5876 37.8174V37.8174" stroke="#32338C" stroke-width="2.6012" stroke-linecap="round" stroke-linejoin="round"/>
<path d="M139.111 248.682C193.705 248.682 237.962 204.399 237.962 149.772C237.962 95.1457 193.705 50.8622 139.111 50.8622C84.5165 50.8622 40.2593 95.1457 40.2593 149.772C40.2593 204.399 84.5165 248.682 139.111 248.682Z" fill="#32338C"/>
<path d="M143.762 248.682C198.356 248.682 242.613 204.399 242.613 149.772C242.613 95.1457 198.356 50.8622 143.762 50.8622C89.1674 50.8622 44.9102 95.1457 44.9102 149.772C44.9102 204.399 89.1674 248.682 143.762 248.682Z" fill="#7371FC"/>
<path d="M159.172 198.608C177.015 191.404 193.206 179.425 203.682 163.301C215.881 144.583 219.564 121.863 218.519 99.2716C205.422 79.8887 185.315 66.3523 162.436 61.5166C139.558 56.681 115.697 60.9242 95.8848 73.3513C76.0726 85.7785 61.8576 105.418 56.2374 128.13C50.6172 150.841 54.031 174.848 65.7589 195.09C94.7035 208.787 129.396 210.626 159.172 198.608Z" fill="white"/>
<path d="M218.519 99.2715C219.59 121.863 215.907 144.576 203.683 163.301C193.181 179.438 176.989 191.404 159.172 198.608C129.396 210.626 94.7036 208.787 65.759 195.09C71.8317 205.571 79.9509 214.721 89.633 221.995C99.315 229.27 110.362 234.519 122.114 237.431C133.867 240.343 146.085 240.858 158.041 238.944C169.997 237.031 181.445 232.728 191.704 226.294C201.962 219.859 210.821 211.424 217.752 201.49C224.684 191.557 229.545 180.329 232.048 168.476C234.55 156.623 234.642 144.387 232.318 132.497C229.993 120.607 225.301 109.308 218.519 99.2715Z" fill="#EEEEFF"/>
<path d="M142.775 150.934L100.348 113.091L144.742 148.604L142.775 150.934Z" fill="#32338C"/>
<path d="M145.452 148.701L165.036 220.631L142.071 150.837L145.452 148.701Z" fill="#32338C"/>
<path d="M143.762 156.459C147.452 156.459 150.445 153.465 150.445 149.772C150.445 146.079 147.452 143.085 143.762 143.085C140.071 143.085 137.079 146.079 137.079 149.772C137.079 153.465 140.071 156.459 143.762 156.459Z" fill="#FE814B"/>
<path d="M143.762 59.5242V78.7072" stroke="#32338C" stroke-width="2.50438" stroke-linecap="round" stroke-linejoin="round"/>
<path d="M143.762 220.831V240.014" stroke="#32338C" stroke-width="2.50438" stroke-linecap="round" stroke-linejoin="round"/>
<path d="M233.949 149.772H214.778" stroke="#32338C" stroke-width="2.50438" stroke-linecap="round" stroke-linejoin="round"/>
<path d="M72.7452 149.772H53.5671" stroke="#32338C" stroke-width="2.50438" stroke-linecap="round" stroke-linejoin="round"/>
<path d="M67.6296 101.382L83.8146 111.664" stroke="#32338C" stroke-width="2.50438" stroke-linecap="round" stroke-linejoin="round"/>
<path d="M203.708 187.874L219.887 198.162" stroke="#32338C" stroke-width="2.50438" stroke-linecap="round" stroke-linejoin="round"/>
<path d="M192.123 73.5952L181.84 89.7898" stroke="#32338C" stroke-width="2.50438" stroke-linecap="round" stroke-linejoin="round"/>
<path d="M105.676 209.748L95.4003 225.943" stroke="#32338C" stroke-width="2.50438" stroke-linecap="round" stroke-linejoin="round"/>
<path d="M219.887 101.382L203.708 111.664" stroke="#32338C" stroke-width="2.50438" stroke-linecap="round" stroke-linejoin="round"/>
<path d="M83.8146 187.874L67.6296 198.162" stroke="#32338C" stroke-width="2.50438" stroke-linecap="round" stroke-linejoin="round"/>
<path d="M95.4003 73.5952L105.676 89.7898" stroke="#32338C" stroke-width="2.50438" stroke-linecap="round" stroke-linejoin="round"/>
<path d="M181.84 209.748L192.123 225.943" stroke="#32338C" stroke-width="2.50438" stroke-linecap="round" stroke-linejoin="round"/>
<path d="M93.9012 199.574L6.85474 232.572L24.9806 280.443L112.027 247.445L93.9012 199.574Z" fill="#F8AB74"/>
<path d="M59.4567 240.001L6.87012 232.565L61.5983 245.655L93.9166 199.563L59.4567 240.001Z" fill="#FE814B"/>
<path d="M270.108 188.9L188.962 169.737L164.256 274.476L245.402 293.64L270.108 188.9Z" fill="#32338C"/>
<path d="M271.618 189.251L190.472 170.087L165.766 274.827L246.912 293.99L271.618 189.251Z" fill="#91C4FB"/>
<path d="M262.588 197.81L194.726 181.784L173.849 270.291L241.711 286.317L262.588 197.81Z" fill="white"/>
<path d="M221.52 165.688L245.817 171.426C247.69 171.868 249.311 173.037 250.323 174.675C251.335 176.313 251.655 178.286 251.213 180.161L250.257 184.213L211.834 175.139L212.79 171.087C213.232 169.212 214.4 167.591 216.038 166.578C217.675 165.566 219.647 165.245 221.52 165.688Z" fill="#32338C"/>
<path d="M205.716 204.362C209.337 203.596 211.652 200.037 210.886 196.413C210.12 192.79 206.564 190.473 202.942 191.24C199.321 192.006 197.006 195.565 197.772 199.188C198.537 202.812 202.094 205.128 205.716 204.362Z" fill="#EEEEFE"/>
<path d="M201.186 194.974L203.992 199.511L212.049 194.528" stroke="#FE814B" stroke-width="2.06547" stroke-linecap="round" stroke-linejoin="round"/>
<path d="M217.378 196.594L254.315 205.314" stroke="#91C4FB" stroke-width="2.06547" stroke-linecap="round" stroke-linejoin="round"/>
<path d="M216.416 200.673L253.353 209.4" stroke="#91C4FB" stroke-width="2.06547" stroke-linecap="round" stroke-linejoin="round"/>
<path d="M215.455 204.752L252.386 213.479" stroke="#91C4FB" stroke-width="2.06547" stroke-linecap="round" stroke-linejoin="round"/>
<path d="M205.94 220.14C205.636 221.431 204.956 222.602 203.986 223.506C203.016 224.411 201.8 225.007 200.492 225.219C199.184 225.432 197.842 225.252 196.636 224.701C195.43 224.151 194.414 223.255 193.717 222.127C193.02 220.999 192.673 219.689 192.719 218.364C192.766 217.038 193.204 215.757 193.979 214.68C194.753 213.604 195.829 212.782 197.071 212.318C198.313 211.853 199.664 211.768 200.954 212.072C201.811 212.274 202.62 212.643 203.334 213.158C204.049 213.672 204.655 214.323 205.118 215.072C205.581 215.822 205.892 216.655 206.033 217.524C206.174 218.394 206.143 219.283 205.94 220.14Z" fill="#EEEEFE"/>
<path d="M196.284 215.758L199.09 220.295L207.147 215.306" stroke="#FE814B" stroke-width="2.06547" stroke-linecap="round" stroke-linejoin="round"/>
<path d="M212.475 217.378L249.412 226.098" stroke="#91C4FB" stroke-width="2.06547" stroke-linecap="round" stroke-linejoin="round"/>
<path d="M211.514 221.457L248.451 230.177" stroke="#91C4FB" stroke-width="2.06547" stroke-linecap="round" stroke-linejoin="round"/>
<path d="M210.553 225.536L247.483 234.263" stroke="#91C4FB" stroke-width="2.06547" stroke-linecap="round" stroke-linejoin="round"/>
<path d="M200.57 242.287C202.162 238.943 200.743 234.941 197.402 233.349C194.06 231.756 190.06 233.175 188.468 236.519C186.876 239.863 188.295 243.865 191.637 245.458C194.979 247.05 198.978 245.631 200.57 242.287Z" fill="#EEEEFE"/>
<path d="M191.381 236.541L194.181 241.072L202.238 236.089" stroke="#FE814B" stroke-width="2.06547" stroke-linecap="round" stroke-linejoin="round"/>
<path d="M207.572 238.161L244.509 246.882" stroke="#91C4FB" stroke-width="2.06547" stroke-linecap="round" stroke-linejoin="round"/>
<path d="M206.611 242.241L243.548 250.961" stroke="#91C4FB" stroke-width="2.06547" stroke-linecap="round" stroke-linejoin="round"/>
<path d="M205.65 246.32L242.581 255.047" stroke="#91C4FB" stroke-width="2.06547" stroke-linecap="round" stroke-linejoin="round"/>
<g style="mix-blend-mode:multiply">
<path d="M203.164 173.089L258.915 186.255L258.148 189.503C257.97 190.261 257.497 190.917 256.835 191.326C256.173 191.736 255.375 191.865 254.618 191.686L204.58 179.869C203.822 179.69 203.167 179.218 202.757 178.555C202.348 177.893 202.219 177.095 202.397 176.336L203.164 173.089Z" fill="#91C4FB"/>
</g>
<path d="M193.34 265.862C196.469 263.883 197.403 259.741 195.426 256.61C193.448 253.479 189.309 252.545 186.179 254.523C183.05 256.502 182.117 260.644 184.094 263.775C186.071 266.906 190.211 267.84 193.34 265.862Z" fill="#EEEEFE"/>
<path d="M186.633 257.357L189.433 261.895L197.49 256.912" stroke="#FE814B" stroke-width="2.06547" stroke-linecap="round" stroke-linejoin="round"/>
<path d="M202.825 258.977L239.755 267.698" stroke="#91C4FB" stroke-width="2.06547" stroke-linecap="round" stroke-linejoin="round"/>
<path d="M201.864 263.057L238.794 271.783" stroke="#91C4FB" stroke-width="2.06547" stroke-linecap="round" stroke-linejoin="round"/>
<path d="M200.896 267.142L237.833 275.863" stroke="#91C4FB" stroke-width="2.06547" stroke-linecap="round" stroke-linejoin="round"/>
<path d="M247.741 93.8626C246.839 95.9747 245.812 98.0309 244.664 100.02C243.543 102.028 242.305 103.968 240.955 105.829C241.859 103.717 242.889 101.661 244.039 99.6718C245.16 97.6654 246.396 95.7258 247.741 93.8626Z" fill="white"/>
<path d="M257.25 123.45C257.25 123.45 250.741 133.668 244.297 141.284C237.852 148.901 228.763 157.421 228.763 157.421L180.17 137.07L187.304 120.41L222.88 131.383L243.381 102.337L257.25 123.45Z" fill="#32338C"/>
<path d="M179.641 117.189L187.304 120.417L182.279 132.151L177.299 130.454L166.3 130.906L163.075 129.285C162.792 129.146 162.54 128.949 162.335 128.708C162.131 128.468 161.977 128.187 161.885 127.885C161.792 127.583 161.763 127.265 161.798 126.951C161.833 126.636 161.931 126.333 162.088 126.058L162.965 124.49L162.185 123.876C161.923 123.672 161.708 123.414 161.555 123.119C161.401 122.825 161.313 122.5 161.296 122.169C161.279 121.837 161.333 121.505 161.455 121.196C161.578 120.887 161.765 120.608 162.004 120.378L162.875 119.526L161.688 117.919C161.489 117.649 161.351 117.339 161.282 117.011C161.214 116.682 161.218 116.343 161.293 116.016C161.369 115.689 161.514 115.382 161.719 115.117C161.924 114.852 162.184 114.634 162.482 114.479L163.688 113.833L163.294 111.697C163.189 111.114 163.31 110.513 163.632 110.016C163.955 109.519 164.455 109.165 165.03 109.024C165.795 108.836 166.593 108.816 167.367 108.966C168.141 109.117 168.874 109.434 169.513 109.896L179.641 117.189Z" fill="#F8AB72"/>
<path d="M179.776 117.977C177.441 112.981 175.074 107.85 174.648 102.35C174.658 102.216 174.638 102.082 174.592 101.956C174.545 101.83 174.472 101.716 174.377 101.621C174.24 101.543 174.083 101.505 173.925 101.511C173.279 101.539 172.656 101.758 172.135 102.141C171.613 102.523 171.217 103.052 170.997 103.661C170.788 104.273 170.705 104.921 170.75 105.566C170.795 106.211 170.969 106.84 171.261 107.417C171.409 107.662 171.496 107.939 171.513 108.224C171.481 108.469 171.393 108.703 171.255 108.908C170.848 109.618 170.448 110.335 170.042 111.051C172.599 114.201 175.964 116.595 179.776 117.977Z" fill="#F8AB72"/>
<path d="M175.325 114.653C174.861 114.362 174.422 114.046 173.99 113.723C173.558 113.401 173.138 113.078 172.7 112.716C172.261 112.355 171.874 112.019 171.48 111.651C171.087 111.284 170.693 110.916 170.326 110.509C170.79 110.799 171.229 111.116 171.661 111.438C172.093 111.761 172.513 112.084 172.951 112.439C173.39 112.794 173.777 113.136 174.17 113.51C174.564 113.885 174.957 114.246 175.325 114.653Z" fill="#32338C"/>
<path d="M172.796 49.0549L184.563 53.5731C185.304 53.8619 185.931 54.3852 186.348 55.0633C186.765 55.7414 186.949 56.5372 186.872 57.3296L186.279 63.3195L182.208 69.9935C181.975 69.9247 181.758 69.8066 181.574 69.6472C181.39 69.4877 181.243 69.2906 181.141 69.0692C181.04 68.8477 180.987 68.6071 180.986 68.3635C180.985 68.1199 181.037 67.879 181.137 67.657C181.737 65.7852 183.718 60.7828 183.718 60.7828V57.2586C183.718 57.2586 181.782 65.4237 179.944 66.9405C178.105 68.4573 171.448 65.4947 169.623 64.0295C168.745 63.313 170.306 61.0023 170.519 57.5749C170.79 53.9281 169.758 49.1839 172.796 49.0549Z" fill="#F8AB74"/>
<path d="M180.324 51.7787C180.518 53.1381 180.563 54.5146 180.46 55.8838C180.271 58.6353 179.541 61.3223 178.312 63.7907C177.704 65.0194 176.967 66.1793 176.112 67.2503C176.845 66.1058 177.492 64.9084 178.047 63.668C178.608 62.4343 179.065 61.1563 179.415 59.8469C179.775 58.5399 180.03 57.2059 180.176 55.858C180.326 54.5037 180.375 53.1403 180.324 51.7787Z" fill="#32338C"/>
<path d="M175.848 50.2296C175.96 51.5655 175.96 52.9085 175.848 54.2444C175.729 55.5815 175.514 56.9082 175.202 58.2139C174.884 59.5178 174.465 60.7953 173.951 62.035C173.684 62.6547 173.401 63.2614 173.1 63.8552C172.938 64.1521 172.79 64.4491 172.609 64.7395C172.446 65.0359 172.183 65.2646 171.867 65.385C172.159 65.2308 172.387 64.9797 172.513 64.675C172.667 64.3845 172.79 64.0682 172.925 63.7713C173.196 63.1646 173.448 62.545 173.68 61.9189C174.148 60.6777 174.536 59.4078 174.841 58.1171C175.162 56.8278 175.399 55.5191 175.551 54.1992C175.717 52.8819 175.816 51.557 175.848 50.2296Z" fill="#32338C"/>
</svg>
