<svg width="38" height="38" viewBox="0 0 38 38" fill="none" xmlns="http://www.w3.org/2000/svg">
<path d="M38 19C38 29.4933 29.4933 38 19 38C8.50778 38 0 29.4933 0 19C0 8.50778 8.50778 0 19 0C29.4933 0 38 8.50778 38 19Z" fill="#FFCC4D"/>
<path d="M12.1389 21.1111C13.5963 21.1111 14.7778 19.4571 14.7778 17.4167C14.7778 15.3763 13.5963 13.7222 12.1389 13.7222C10.6815 13.7222 9.5 15.3763 9.5 17.4167C9.5 19.4571 10.6815 21.1111 12.1389 21.1111Z" fill="#664500"/>
<path d="M25.8611 21.1111C27.3185 21.1111 28.5 19.4571 28.5 17.4167C28.5 15.3763 27.3185 13.7222 25.8611 13.7222C24.4037 13.7222 23.2222 15.3763 23.2222 17.4167C23.2222 19.4571 24.4037 21.1111 25.8611 21.1111Z" fill="#664500"/>
<path d="M24.7897 29.4278C24.7781 29.3814 23.5811 24.8056 19 24.8056C14.4189 24.8056 13.2219 29.3814 13.2103 29.4278C13.1543 29.6527 13.2567 29.8828 13.4551 30.0021C13.6536 30.1203 13.9122 30.0928 14.0843 29.9387C14.0938 29.9313 15.1535 29.0278 19 29.0278C22.7894 29.0278 23.8735 29.9039 23.9146 29.9387C24.0149 30.0348 24.1458 30.0833 24.2778 30.0833C24.3664 30.0833 24.4561 30.0612 24.5374 30.0158C24.7443 29.8986 24.8478 29.6579 24.7897 29.4278Z" fill="#664500"/>
<path d="M10.5556 31.6667C10.5556 34.5821 8.19322 36.9444 5.27778 36.9444C2.36233 36.9444 0 34.5821 0 31.6667C0 28.7512 4.22222 21.1111 5.27778 21.1111C6.33333 21.1111 10.5556 28.7512 10.5556 31.6667Z" fill="#5DADEC"/>
<path d="M31.6667 13.7222C25.8041 13.7222 23.4312 9.1126 23.333 8.91627C23.0723 8.39482 23.2834 7.76044 23.8049 7.49971C24.3242 7.23899 24.9575 7.44905 25.2193 7.96733C25.2985 8.12144 27.1415 11.6111 31.6667 11.6111C32.2504 11.6111 32.7222 12.084 32.7222 12.6667C32.7222 13.2504 32.2504 13.7222 31.6667 13.7222ZM6.33333 13.7222C5.75066 13.7222 5.27777 13.2493 5.27777 12.6667C5.27777 12.084 5.75066 11.6111 6.33333 11.6111C11.6987 11.6111 12.6624 8.31777 12.7015 8.17738C12.8545 7.62005 13.4298 7.28227 13.9882 7.42899C14.5477 7.57571 14.8865 8.13938 14.7461 8.70094C14.6944 8.90571 13.4098 13.7222 6.33333 13.7222Z" fill="#664500"/>
</svg>
