<svg width="38" height="38" viewBox="0 0 38 38" fill="none" xmlns="http://www.w3.org/2000/svg">
<path d="M38 19C38 29.4933 29.4933 38 19 38C8.50778 38 0 29.4933 0 19C0 8.50778 8.50778 0 19 0C29.4933 0 38 8.50778 38 19Z" fill="#FFCC4D"/>
<path d="M12.1389 21.1111C13.5963 21.1111 14.7778 19.4571 14.7778 17.4167C14.7778 15.3763 13.5963 13.7222 12.1389 13.7222C10.6815 13.7222 9.5 15.3763 9.5 17.4167C9.5 19.4571 10.6815 21.1111 12.1389 21.1111Z" fill="#664500"/>
<path d="M25.8611 21.1111C27.3185 21.1111 28.5 19.4571 28.5 17.4167C28.5 15.3763 27.3185 13.7222 25.8611 13.7222C24.4037 13.7222 23.2222 15.3763 23.2222 17.4167C23.2222 19.4571 24.4037 21.1111 25.8611 21.1111Z" fill="#664500"/>
<path d="M26.3889 27.4444H11.6111C11.0284 27.4444 10.5555 26.9726 10.5555 26.3889C10.5555 25.8052 11.0284 25.3333 11.6111 25.3333H26.3889C26.9726 25.3333 27.4444 25.8052 27.4444 26.3889C27.4444 26.9726 26.9726 27.4444 26.3889 27.4444Z" fill="#664500"/>
</svg>
