<svg width="38" height="38" viewBox="0 0 38 38" fill="none" xmlns="http://www.w3.org/2000/svg">
<path d="M38 19C38 29.4933 29.4933 38 19 38C8.50778 38 0 29.4933 0 19C0 8.50778 8.50778 0 19 0C29.4933 0 38 8.50778 38 19Z" fill="#FFCC4D"/>
<path d="M19 23.2222C15.1758 23.2222 12.6382 22.7768 9.50003 22.1667C8.78331 22.0284 7.38892 22.1667 7.38892 24.2778C7.38892 28.5 12.2392 33.7778 19 33.7778C25.7598 33.7778 30.6111 28.5 30.6111 24.2778C30.6111 22.1667 29.2168 22.0274 28.5 22.1667C25.3619 22.7768 22.8243 23.2222 19 23.2222Z" fill="#664500"/>
<path d="M9.5 24.2778C9.5 24.2778 12.6667 25.3333 19 25.3333C25.3333 25.3333 28.5 24.2778 28.5 24.2778C28.5 24.2778 26.3889 28.5 19 28.5C11.6111 28.5 9.5 24.2778 9.5 24.2778Z" fill="white"/>
<path d="M32.3 19.2111C32.1797 19.1214 30.2617 17.7059 27.3959 16.7369C27.4233 16.6155 27.4444 16.4909 27.4444 16.3611C27.4444 15.9716 27.2977 15.619 27.0655 15.3435C28.9676 14.7946 30.5847 14.7778 30.6132 14.7778C31.1948 14.7756 31.6667 14.3028 31.6656 13.7201C31.6646 13.1385 31.1938 12.6666 30.6111 12.6666C30.3778 12.6666 24.8573 12.7068 21.4204 16.1426C21.1185 16.4445 21.0277 16.8984 21.1913 17.2931C21.3539 17.6869 21.7402 17.9444 22.1667 17.9444C27.0117 17.9444 30.9943 20.8704 31.0344 20.901C31.2244 21.0425 31.4461 21.11 31.6656 21.11C31.9876 21.11 32.3042 20.9633 32.5122 20.6878C32.8605 20.2202 32.7655 19.5605 32.3 19.2111V19.2111ZM16.5796 16.1426C13.1438 12.7068 7.62217 12.6666 7.38889 12.6666C6.80622 12.6666 6.33439 13.1385 6.33439 13.7201C6.33334 14.3028 6.80517 14.7756 7.38784 14.7778C7.41528 14.7778 9.03239 14.7946 10.9356 15.3435C10.7023 15.619 10.5556 15.9716 10.5556 16.3611C10.5556 16.4909 10.5756 16.6155 10.6052 16.7369C7.73828 17.7059 5.82034 19.1214 5.7 19.2111C5.23345 19.5605 5.1395 20.2223 5.48889 20.6878C5.69578 20.9654 6.0135 21.1111 6.33439 21.1111C6.55395 21.1111 6.77667 21.0425 6.96667 20.9C7.00572 20.8704 10.9641 17.9444 15.8333 17.9444C16.2598 17.9444 16.6451 17.6869 16.8087 17.2931C16.9723 16.8984 16.8815 16.4445 16.5796 16.1426V16.1426Z" fill="#664500"/>
</svg>
