<svg width="38" height="38" viewBox="0 0 38 38" fill="none" xmlns="http://www.w3.org/2000/svg">
<path d="M38 19C38 29.4933 29.4933 38 19 38C8.50778 38 0 29.4933 0 19C0 8.50778 8.50778 0 19 0C29.4933 0 38 8.50778 38 19Z" fill="#FFCC4D"/>
<path d="M26.9008 31.5389C26.8533 31.35 25.6679 26.9167 19 26.9167C12.331 26.9167 11.1466 31.35 11.0991 31.5389C11.0411 31.768 11.1445 32.0055 11.3493 32.1237C11.5551 32.2388 11.8127 32.2071 11.9826 32.0424C12.0027 32.0224 14.0452 30.0833 19 30.0833C23.9547 30.0833 25.9983 32.0224 26.0173 32.0414C26.1186 32.1417 26.2537 32.1944 26.3889 32.1944C26.4775 32.1944 26.5672 32.1723 26.6485 32.1269C26.8554 32.0087 26.9589 31.7691 26.9008 31.5389ZM16.5796 18.2537C13.1437 14.8179 7.62213 14.7778 7.38885 14.7778C6.80619 14.7778 6.33435 15.2496 6.33435 15.8312C6.3333 16.4139 6.80513 16.8868 7.3878 16.8889C7.41841 16.8889 9.41974 16.9121 11.5921 17.6668C10.9661 18.3424 10.5555 19.3916 10.5555 20.5833C10.5555 22.6248 11.7367 24.2778 13.1944 24.2778C14.6521 24.2778 15.8333 22.6248 15.8333 20.5833C15.8333 20.3997 15.8132 20.2244 15.7942 20.0482C15.808 20.0482 15.8206 20.0556 15.8333 20.0556C16.1035 20.0556 16.3737 19.9521 16.5796 19.7463C16.9923 19.3336 16.9923 18.6664 16.5796 18.2537ZM30.6111 14.7778C30.3778 14.7778 24.8572 14.8179 21.4204 18.2537C21.0076 18.6664 21.0076 19.3336 21.4204 19.7463C21.6262 19.9521 21.8964 20.0556 22.1666 20.0556C22.1804 20.0556 22.192 20.0482 22.2046 20.0482C22.1877 20.2244 22.1666 20.3997 22.1666 20.5833C22.1666 22.6248 23.3478 24.2778 24.8055 24.2778C26.2632 24.2778 27.4444 22.6248 27.4444 20.5833C27.4444 19.3916 27.0338 18.3424 26.4079 17.6668C28.5802 16.9121 30.5815 16.8889 30.6132 16.8889C31.1948 16.8868 31.6666 16.4139 31.6656 15.8312C31.6645 15.2496 31.1937 14.7778 30.6111 14.7778Z" fill="#664500"/>
</svg>
